<svg width="119" height="32" viewBox="0 0 119 32" fill="none" xmlns="http://www.w3.org/2000/svg">
<g clip-path="url(#clip0_5_1591)">
<path d="M49.0869 0.571991C49.2013 0.571991 49.283 0.571991 49.3647 0.571991C54.0144 0.571991 58.6559 0.56382 63.3055 0.571991C64.9725 0.571991 66.6313 0.76811 68.2248 1.31561C70.1696 1.99385 71.6487 3.19508 72.474 5.12357C72.997 6.33297 73.1114 7.62408 73.0951 8.92337C73.0787 10.239 72.8663 11.5219 72.3188 12.7232C71.3545 14.8396 69.6794 16.1062 67.4812 16.7436C67.2769 16.8008 67.0644 16.8498 66.8602 16.907C66.8602 16.907 66.852 16.9152 66.8275 16.9479C66.9746 17.0705 67.1298 17.2012 67.2769 17.3238C68.5108 18.3289 69.3607 19.5955 69.9245 21.0827C71.1993 24.4576 72.4904 27.8243 73.7733 31.191C73.806 31.2645 73.8224 31.3463 73.855 31.4525C73.1686 31.4525 72.4986 31.4525 71.8367 31.4525C71.5425 31.4525 71.3436 31.3136 71.2401 31.0357C70.1942 28.2574 69.1645 25.4627 68.0941 22.6925C67.6201 21.4586 67.0318 20.2819 66.1247 19.285C65.0542 18.1164 63.7468 17.4954 62.1451 17.5036C58.664 17.5036 55.1829 17.5036 51.7018 17.5036C51.4512 17.5036 51.3259 17.6261 51.3259 17.8713C51.3259 22.2676 51.3259 26.6639 51.3259 31.0602C51.3259 31.1746 51.3259 31.289 51.3259 31.4198H49.1114V0.571991H49.0869ZM51.3014 9.0296C51.3014 11.0153 51.3014 13.001 51.3014 14.9949C51.3014 15.1583 51.3014 15.2727 51.5302 15.2727C55.3872 15.2564 59.2524 15.2645 63.1094 15.24C64.3351 15.24 65.5445 15.0848 66.7212 14.7334C68.1104 14.3248 69.2789 13.5975 69.9899 12.2819C70.4965 11.3503 70.6763 10.3289 70.7171 9.28292C70.758 8.1961 70.6926 7.12562 70.2677 6.10417C69.7039 4.74768 68.6334 3.97138 67.3014 3.48925C65.8305 2.9581 64.2943 2.82735 62.7498 2.81918C59.0399 2.80284 55.3218 2.81918 51.6119 2.81101C51.3668 2.81101 51.2932 2.87638 51.2932 3.1297C51.3014 5.09906 51.2932 7.06842 51.2932 9.04594L51.3014 9.0296Z" fill="white"/>
<path d="M29.1237 15.7794C29.1237 18.6885 28.6497 21.3524 27.473 23.8693C26.1247 26.7538 24.0899 28.9928 21.2381 30.4637C19.7018 31.2564 18.0593 31.7303 16.3351 31.9101C14.1778 32.1307 12.0532 31.9918 9.97759 31.3218C6.38208 30.1532 3.72631 27.8733 1.96125 24.5312C0.890766 22.4883 0.30241 20.2983 0.0981202 17.9939C-0.122513 15.4607 6.09864e-05 12.9602 0.702819 10.5005C1.39741 8.06537 2.55777 5.89173 4.35553 4.07763C6.2922 2.12462 8.62927 0.890705 11.3259 0.326864C12.3882 0.0980592 13.4587 0 14.5373 0C18.4189 0.0245148 21.8673 1.20123 24.662 3.9714C26.5496 5.8427 27.7427 8.12257 28.4618 10.6721C28.9439 12.3882 29.1318 14.145 29.1237 15.7794ZM26.7784 15.9101C26.7539 15.3381 26.7375 14.7579 26.6967 14.1859C26.5823 12.5434 26.2472 10.9418 25.6099 9.41369C24.2207 6.08784 21.8754 3.79162 18.378 2.762C16.376 2.17365 14.3412 2.1001 12.282 2.43514C9.87953 2.83555 7.77943 3.83248 6.04705 5.56486C4.3065 7.31359 3.30139 9.44637 2.77023 11.8243C2.31262 13.8754 2.2636 15.9591 2.46789 18.0429C2.63132 19.808 3.05624 21.4995 3.80803 23.1011C5.11548 25.9122 7.17473 27.9305 10.1165 29.001C11.9878 29.6793 13.9326 29.859 15.9102 29.6793C17.4628 29.5403 18.9418 29.1399 20.3228 28.4208C22.6763 27.2033 24.3351 25.3238 25.4137 22.9213C26.4189 20.6823 26.7866 18.3289 26.7866 15.8938L26.7784 15.9101Z" fill="white"/>
<path d="M118.603 31.4443C117.883 31.4443 117.197 31.4443 116.502 31.4443C116.11 31.4443 115.843 31.2618 115.702 30.8968C114.541 27.8406 113.373 24.7926 112.212 21.7364C112.147 21.5567 112.065 21.4995 111.877 21.4995C106.974 21.4995 102.071 21.4995 97.1766 21.4995C96.9886 21.4995 96.9069 21.5485 96.8415 21.7283C95.7057 24.8743 94.5617 28.0122 93.4258 31.1501C93.3441 31.3871 93.2379 31.4607 92.9927 31.4525C92.3145 31.4361 91.6444 31.4525 90.9253 31.4525C91.0724 31.0684 91.2113 30.7007 91.3502 30.333C94.9539 20.9683 98.5657 11.6037 102.178 2.24717C102.366 1.76505 102.553 1.28292 102.733 0.792626C102.799 0.612851 102.88 0.539307 103.085 0.539307C103.975 0.55565 104.866 0.55565 105.757 0.539307C105.953 0.539307 106.043 0.604679 106.116 0.784455C107.734 4.75585 109.352 8.72725 110.97 12.6987C113.487 18.8682 116.004 25.0296 118.521 31.1992C118.553 31.2727 118.578 31.3544 118.611 31.4525L118.603 31.4443ZM104.319 2.55769C102.039 8.32684 99.7833 14.0143 97.5198 19.7262H111.477C109.091 14.0061 106.713 8.31867 104.31 2.55769H104.319Z" fill="white"/>
</g>
<defs>
<clipPath id="clip0_5_1591">
<rect width="118.603" height="32" fill="white"/>
</clipPath>
</defs>
</svg>
