<svg width="40" height="40" viewBox="0 0 40 40" fill="none" xmlns="http://www.w3.org/2000/svg">
<path d="M28.3917 8.46564C28.7549 8.26666 29.2108 8.39985 29.4097 8.76314C30.4242 10.6153 31.0007 12.7413 31.0007 14.9997C31.0007 17.2581 30.4242 19.3841 29.4097 21.2363C29.2108 21.5995 28.7549 21.7327 28.3917 21.5338C28.0284 21.3348 27.8952 20.879 28.0942 20.5157C28.9907 18.8788 29.5007 17 29.5007 14.9997C29.5007 12.9994 28.9907 11.1206 28.0942 9.48372C27.8952 9.12043 28.0284 8.66462 28.3917 8.46564ZM25.2903 11.0606C25.6709 10.8973 26.1119 11.0735 26.2752 11.4542C26.7424 12.5432 27.0007 13.7422 27.0007 14.9997C27.0007 16.2571 26.7424 17.4562 26.2752 18.5451C26.1119 18.9258 25.6709 19.102 25.2903 18.9387C24.9096 18.7754 24.7334 18.3344 24.8967 17.9538C25.2852 17.0482 25.5007 16.0501 25.5007 14.9997C25.5007 13.9493 25.2852 12.9511 24.8967 12.0456C24.7334 11.6649 24.9096 11.2239 25.2903 11.0606ZM26.0034 24.2485C26.0034 23.0065 24.9966 21.9996 23.7545 21.9996H12.2528C11.0108 21.9996 10.0039 23.0065 10.0039 24.2485V25.1684C10.0039 25.7405 10.1823 26.2983 10.5143 26.7642C12.0564 28.9286 14.5794 30.0007 18.0004 30.0007C21.4206 30.0007 23.9449 28.9291 25.4908 26.7658C25.8242 26.2993 26.0034 25.7403 26.0034 25.1669V24.2485ZM23.0004 15.0043C23.0004 12.2429 20.7618 10.0043 18.0004 10.0043C15.2389 10.0043 13.0004 12.2429 13.0004 15.0043C13.0004 17.7657 15.2389 20.0043 18.0004 20.0043C20.7618 20.0043 23.0004 17.7657 23.0004 15.0043Z" fill="white"/>
</svg>
