<svg width="40" height="40" viewBox="0 0 40 40" fill="none" xmlns="http://www.w3.org/2000/svg">
<g clip-path="url(#clip0_141_104)">
<path d="M8 17.2564C8.21337 16.5808 8.69161 16.3427 9.37517 16.363C10.2618 16.3894 11.1497 16.3746 12.037 16.3633C12.1628 16.3617 12.3122 16.3092 12.409 16.2294C14.3075 14.6663 16.1995 13.0948 18.0941 11.5272C18.6557 11.0625 19.3399 11.096 19.7309 11.6453C19.8696 11.84 19.9404 12.1155 19.9543 12.3594C19.9864 12.9181 19.9645 13.4797 19.9645 14.0403C19.9645 18.2981 19.9649 22.5559 19.9642 26.814C19.9642 27.5014 19.6031 27.9536 18.9923 28.0314C18.6531 28.0746 18.3709 27.9442 18.1147 27.7318C16.6774 26.5391 15.2385 25.348 13.8003 24.1563C13.333 23.7692 12.8699 23.3759 12.3949 22.9987C12.3012 22.9244 12.1609 22.8748 12.0415 22.8732C11.17 22.8623 10.2969 22.841 9.42666 22.8755C8.74181 22.9025 8.24459 22.693 8 22.022C8 20.4334 8 18.8449 8 17.2564Z" fill="white"/>
<path d="M31.9326 19.2603C31.8766 22.9665 30.8217 25.9408 28.7015 28.5292C28.2683 29.058 27.6269 29.15 27.1345 28.7632C26.5092 28.2718 26.3911 27.6426 26.8462 27.0569C27.4158 26.3238 27.9413 25.5655 28.3494 24.7291C28.9062 23.5879 29.2782 22.3904 29.4369 21.1301C29.8163 18.1185 29.1215 15.371 27.3814 12.8878C27.1674 12.5824 26.925 12.2969 26.6875 12.0086C26.1951 11.4103 26.2666 10.7815 26.8928 10.2588C27.3888 9.84495 28.0376 9.9357 28.4991 10.4719C30.1816 12.4273 31.2661 14.6701 31.7009 17.2132C31.8367 18.0081 31.884 18.8181 31.9326 19.2603Z" fill="white"/>
<path d="M26.6572 19.5905C26.6547 21.5173 26.085 23.2378 24.9657 24.7771C24.5982 25.2827 23.9513 25.4066 23.4586 25.0732C22.8455 24.6583 22.647 23.9915 23.0161 23.4409C23.4834 22.7441 23.8866 22.0226 24.0833 21.2009C24.5406 19.2932 24.2207 17.5308 23.0895 15.9198C22.9347 15.6993 22.7615 15.4728 22.6824 15.2221C22.5169 14.6965 22.8362 14.1169 23.3868 13.8427C23.8631 13.6055 24.4064 13.7442 24.7591 14.1922C26.0126 15.7817 26.6489 17.5875 26.6572 19.5905Z" fill="white"/>
<path d="M29 11L10.5 28" stroke="white" stroke-width="1.5" stroke-linecap="round"/>
</g>
<defs>
<clipPath id="clip0_141_104">
<rect width="23.933" height="19" fill="white" transform="translate(8 10)"/>
</clipPath>
</defs>
</svg>
